<svg width="79" height="56" viewBox="0 0 79 56" fill="none" xmlns="http://www.w3.org/2000/svg">
<path d="M54.222 55.9946C54.222 55.9946 62.8182 31.0679 62.8853 31.0007C62.9525 30.9336 72.9814 55.9946 72.9814 55.9946H78.4435L64.1613 22.1919L52.7109 55.9946H54.222Z" fill="white"/>
<path d="M37.1549 39.2947C37.1549 39.2947 34.4574 46.8947 34.3902 46.9619C34.3231 47.029 24.2942 22.1919 24.2942 22.1919L18.832 22.3374L33.1142 55.7707L37.9832 41.3542L37.1549 39.2947Z" fill="white"/>
<path d="M40.9682 30.6204L41.7181 32.9149C45.2998 21.9794 48.154 15.3308 48.5458 9.95823C49.0159 3.56706 44.964 -0.193768 39.4683 0.00770532C34.8568 0.175599 30.5587 1.77619 29.1484 8.63746C28.1634 13.4392 31.734 22.4831 31.734 22.4831L44.0574 55.7821L55.7204 22.0466L53.9967 22.0914L45.5573 46.6039L40.263 31.7061C40.263 31.7061 34.9687 18.6328 34.0061 15.342C32.5735 10.4283 32.4503 -0.249733 40.9682 0.533773C43.2067 0.746439 49.6986 3.55587 47.1467 11.9842C43.6657 23.5017 43.9567 21.8563 40.9682 30.6204Z" fill="white"/>
<path d="M13.3902 37.3584C8.65562 31.3365 5.00672 25.9751 8.01762 23.1321C11.174 20.166 15.8415 24.9118 13.5581 27.9451H15.8751C15.9982 26.9601 15.3826 22.2367 10.9166 21.6658C5.62233 20.9943 1.46975 26.3669 4.05532 32.1984C6.54015 37.7837 11.7784 41.9698 13.5022 45.3725C15.1699 48.6856 13.5022 54.2597 9.1481 55.1999C5.84619 55.9162 -0.533789 53.5433 1.64883 46.6821C2.4995 44.007 6.7752 41.8579 8.75635 46.4582V42.6862C7.29008 41.6229 4.16725 40.761 1.41378 44.3427C-2.31347 49.2005 1.92866 55.6924 7.17815 55.9722C11.9351 56.2296 17.1958 54.7858 18.192 47.4096C18.6285 44.186 16.5243 41.3542 13.3902 37.3584Z" fill="white"/>
</svg>
